<?xml version="1.0" encoding="UTF-8"?><svg xmlns="http://www.w3.org/2000/svg" xmlns:xlink="http://www.w3.org/1999/xlink" fill-opacity="1" color-rendering="auto" color-interpolation="auto" text-rendering="auto" stroke="black" stroke-linecap="square" width="499" stroke-miterlimit="10" shape-rendering="auto" stroke-opacity="1" fill="black" stroke-dasharray="none" font-weight="normal" stroke-width="1" height="964" font-family="'Dialog'" font-style="normal" stroke-linejoin="miter" font-size="12px" stroke-dashoffset="0" image-rendering="auto">
  <!--Generated by ySVG 2.5-->
  <defs id="genericDefs"/>
  <g>
    <defs id="defs1">
      <clipPath clipPathUnits="userSpaceOnUse" id="clipPath1">
        <path d="M0 0 L499 0 L499 964 L0 964 L0 0 Z"/>
      </clipPath>
      <clipPath clipPathUnits="userSpaceOnUse" id="clipPath2">
        <path d="M33 -99 L532 -99 L532 865 L33 865 L33 -99 Z"/>
      </clipPath>
    </defs>
    <g fill="white" text-rendering="geometricPrecision" shape-rendering="geometricPrecision" transform="translate(-33,99)" stroke="white">
      <rect x="33" width="499" height="964" y="-99" clip-path="url(#clipPath2)" stroke="none"/>
    </g>
    <g fill="lime" text-rendering="geometricPrecision" shape-rendering="geometricPrecision" transform="matrix(1,0,0,1,-33,99)" stroke="lime">
      <circle r="15" clip-path="url(#clipPath2)" cx="279.5" cy="-69" stroke="none"/>
    </g>
    <g text-rendering="geometricPrecision" stroke-miterlimit="1.45" shape-rendering="geometricPrecision" transform="matrix(1,0,0,1,-33,99)" stroke-linecap="butt">
      <circle fill="none" r="15" clip-path="url(#clipPath2)" cx="279.5" cy="-69"/>
    </g>
    <g fill="aqua" text-rendering="geometricPrecision" shape-rendering="geometricPrecision" transform="matrix(1,0,0,1,-33,99)" stroke="aqua">
      <ellipse rx="55.5" ry="56" clip-path="url(#clipPath2)" cx="279.5" cy="77" stroke="none"/>
    </g>
    <g text-rendering="geometricPrecision" stroke-miterlimit="1.45" shape-rendering="geometricPrecision" font-family="sans-serif" transform="matrix(1,0,0,1,-33,99)" stroke-linecap="butt">
      <text x="256.5928" xml:space="preserve" y="81.1543" clip-path="url(#clipPath2)" stroke="none">Waiting</text>
      <ellipse rx="55.5" fill="none" ry="56" clip-path="url(#clipPath2)" cx="279.5" cy="77"/>
    </g>
    <g fill="aqua" text-rendering="geometricPrecision" shape-rendering="geometricPrecision" transform="matrix(1,0,0,1,-33,99)" stroke="aqua">
      <ellipse rx="55.5" ry="56" clip-path="url(#clipPath2)" cx="279.5" cy="234" stroke="none"/>
    </g>
    <g text-rendering="geometricPrecision" stroke-miterlimit="1.45" shape-rendering="geometricPrecision" font-family="sans-serif" transform="matrix(1,0,0,1,-33,99)" stroke-linecap="butt">
      <text x="254.6768" xml:space="preserve" y="238.1543" clip-path="url(#clipPath2)" stroke="none">Working</text>
      <ellipse rx="55.5" fill="none" ry="56" clip-path="url(#clipPath2)" cx="279.5" cy="234"/>
    </g>
    <g fill="aqua" text-rendering="geometricPrecision" shape-rendering="geometricPrecision" transform="matrix(1,0,0,1,-33,99)" stroke="aqua">
      <ellipse rx="55.5" ry="56" clip-path="url(#clipPath2)" cx="279.5" cy="444" stroke="none"/>
    </g>
    <g text-rendering="geometricPrecision" stroke-miterlimit="1.45" shape-rendering="geometricPrecision" font-family="sans-serif" transform="matrix(1,0,0,1,-33,99)" stroke-linecap="butt">
      <text x="244.7949" xml:space="preserve" y="448.1543" clip-path="url(#clipPath2)" stroke="none">Need break</text>
      <ellipse rx="55.5" fill="none" ry="56" clip-path="url(#clipPath2)" cx="279.5" cy="444"/>
    </g>
    <g fill="aqua" text-rendering="geometricPrecision" shape-rendering="geometricPrecision" transform="matrix(1,0,0,1,-33,99)" stroke="aqua">
      <ellipse rx="55.5" ry="56" clip-path="url(#clipPath2)" cx="279.5" cy="627" stroke="none"/>
    </g>
    <g text-rendering="geometricPrecision" stroke-miterlimit="1.45" shape-rendering="geometricPrecision" font-family="sans-serif" transform="matrix(1,0,0,1,-33,99)" stroke-linecap="butt">
      <text x="253.1035" xml:space="preserve" y="631.1543" clip-path="url(#clipPath2)" stroke="none">breaking</text>
      <ellipse rx="55.5" fill="none" ry="56" clip-path="url(#clipPath2)" cx="279.5" cy="627"/>
    </g>
    <g fill="aqua" text-rendering="geometricPrecision" shape-rendering="geometricPrecision" transform="matrix(1,0,0,1,-33,99)" stroke="aqua">
      <ellipse rx="55.5" ry="56" clip-path="url(#clipPath2)" cx="279.5" cy="786.25" stroke="none"/>
    </g>
    <g text-rendering="geometricPrecision" stroke-miterlimit="1.45" shape-rendering="geometricPrecision" font-family="sans-serif" transform="matrix(1,0,0,1,-33,99)" stroke-linecap="butt">
      <text x="247.0947" xml:space="preserve" y="790.4043" clip-path="url(#clipPath2)" stroke="none">break over</text>
      <ellipse rx="55.5" fill="none" ry="56" clip-path="url(#clipPath2)" cx="279.5" cy="786.25"/>
      <path fill="none" d="M279.5 -54 L279.5 13" clip-path="url(#clipPath2)"/>
      <path d="M279.5 21 L284.5 9 L279.5 12 L274.5 9 Z" clip-path="url(#clipPath2)" stroke="none"/>
      <path fill="none" d="M279.5 133 L279.5 170" clip-path="url(#clipPath2)"/>
      <path d="M279.5 178 L284.5 166 L279.5 169 L274.5 166 Z" clip-path="url(#clipPath2)" stroke="none"/>
      <text x="168.7646" xml:space="preserve" y="161.6543" clip-path="url(#clipPath2)" stroke="none">Pressure: beep1</text>
      <path fill="none" d="M335 234 L380.5 234 L380.5 149 L331.3426 113.9571" clip-path="url(#clipPath2)"/>
      <path d="M324.8284 109.3133 L331.6974 120.3504 L332.1569 114.5376 L337.5021 112.2076 Z" clip-path="url(#clipPath2)" stroke="none"/>
      <text x="404.8789" xml:space="preserve" y="208.1543" clip-path="url(#clipPath2)" stroke="none">No pressure</text>
      <path fill="none" d="M279.5 290 L279.5 380" clip-path="url(#clipPath2)"/>
      <path d="M279.5 388 L284.5 376 L279.5 379 L274.5 376 Z" clip-path="url(#clipPath2)" stroke="none"/>
      <text x="171.7715" xml:space="preserve" y="324.1543" clip-path="url(#clipPath2)" stroke="none">25 mins: beep2</text>
      <path fill="none" d="M308.9761 396.5507 L315.2232 386.4944 L324.5614 368.8619 L340.4386 333.1381 L342.468 329.7119 L344.4947 328.5714 L346.5188 329.7166 L348.5402 333.1475 L393.4598 434.8525 L394.6024 438.8545 L393.99 441.7131 L391.6225 443.4283 L387.5 444 L343 444" clip-path="url(#clipPath2)"/>
      <path d="M335 444 L347 449 L344 444 L347 439 Z" clip-path="url(#clipPath2)" stroke="none"/>
      <text x="357.7148" xml:space="preserve" y="478.1543" clip-path="url(#clipPath2)" stroke="none">1 min: beep3</text>
      <path fill="none" d="M279.5 500 L279.5 563" clip-path="url(#clipPath2)"/>
      <path d="M279.5 571 L284.5 559 L279.5 562 L274.5 559 Z" clip-path="url(#clipPath2)" stroke="none"/>
      <text x="147.5078" xml:space="preserve" y="536.073" clip-path="url(#clipPath2)" stroke="none">No pressure: beep4</text>
      <path fill="none" d="M304.693 676.8807 L306.8981 678.5296 L312.0217 681.6423 L317.4539 684.2591 L323.1633 686.3488 L329.1187 687.8801 L335.2888 688.8217 L341.6426 689.1426 L347.9963 688.8217 L354.1665 687.8801 L360.1219 686.3488 L365.8313 684.2591 L371.2634 681.6423 L376.3871 678.5296 L381.171 674.9522 L385.584 670.9415 L389.5948 666.5284 L393.1722 661.7445 L396.2849 656.6208 L398.9017 651.1887 L400.9914 645.4793 L402.5226 639.5239 L403.4643 633.3537 L403.7852 627 L403.4643 620.6463 L402.5226 614.4761 L400.9914 608.5207 L398.9017 602.8113 L396.2849 597.3792 L393.1722 592.2555 L389.5948 587.4716 L385.584 583.0585 L381.171 579.0478 L376.3871 575.4704 L371.2634 572.3577 L365.8313 569.7409 L360.1219 567.6512 L354.1665 566.1199 L347.9963 565.1783 L341.6426 564.8574 L335.2888 565.1783 L329.1187 566.1199 L323.1633 567.6512 L317.4539 569.7409 L312.0217 572.3577 L311.3891 572.742 L311.3091 572.8019" clip-path="url(#clipPath2)"/>
      <path d="M304.6094 577.1739 L317.3914 574.8032 L312.1465 572.2554 L311.9264 566.4286 Z" clip-path="url(#clipPath2)" stroke="none"/>
      <text x="416.4131" xml:space="preserve" y="642.4043" clip-path="url(#clipPath2)" stroke="none">pressure: beep3</text>
      <path fill="none" d="M279.5 683 L279.5 722.25" clip-path="url(#clipPath2)"/>
      <path d="M279.5 730.25 L284.5 718.25 L279.5 721.25 L274.5 718.25 Z" clip-path="url(#clipPath2)" stroke="none"/>
      <text x="157.8389" xml:space="preserve" y="710.7793" clip-path="url(#clipPath2)" stroke="none">5 mins: beep5</text>
      <path fill="none" d="M304.4933 836.2936 L307.1736 838.2979 L312.3488 841.4419 L317.8356 844.085 L323.6024 846.1957 L329.6177 847.7424 L335.8499 848.6935 L342.2676 849.0176 L348.6852 848.6935 L354.9174 847.7424 L360.9327 846.1957 L366.6996 844.085 L372.1863 841.4419 L377.3615 838.2979 L382.1936 834.6845 L386.651 830.6334 L390.7021 826.176 L394.3154 821.3439 L397.4594 816.1688 L400.1026 810.6819 L402.2133 804.9152 L403.7599 798.8998 L404.7111 792.6676 L405.0352 786.25 L404.7111 779.8324 L403.7599 773.6002 L402.2133 767.5848 L400.1026 761.8181 L397.4594 756.3312 L394.3154 751.1561 L390.7021 746.324 L386.651 741.8666 L382.1936 737.8155 L377.3615 734.2021 L372.1863 731.0581 L366.6996 728.415 L360.9327 726.3043 L354.9174 724.7576 L348.6852 723.8065 L342.2676 723.4824 L335.8499 723.8065 L329.6177 724.7576 L323.6024 726.3043 L317.8356 728.415 L312.3488 731.0581 L311.1581 731.7814 L311.0781 731.8413" clip-path="url(#clipPath2)"/>
      <path d="M304.4101 736.2616 L317.1747 733.7986 L311.9115 731.2888 L311.6494 725.4637 Z" clip-path="url(#clipPath2)" stroke="none"/>
      <text x="418.9912" xml:space="preserve" y="787.9043" clip-path="url(#clipPath2)" stroke="none">1 min: beep5</text>
      <path fill="none" d="M224 786.25 L55.0352 786.25 L48.7852 234 L216 234" clip-path="url(#clipPath2)"/>
      <path d="M224 234 L212 229 L215 234 L212 239 Z" clip-path="url(#clipPath2)" stroke="none"/>
      <text x="62.6289" xml:space="preserve" y="760.4043" clip-path="url(#clipPath2)" stroke="none">pressure: beep1</text>
    </g>
  </g>
</svg>
