<?xml version="1.0" encoding="UTF-8"?><svg xmlns="http://www.w3.org/2000/svg" xmlns:xlink="http://www.w3.org/1999/xlink" fill-opacity="1" color-rendering="auto" color-interpolation="auto" text-rendering="auto" stroke="black" stroke-linecap="square" width="535" stroke-miterlimit="10" shape-rendering="auto" stroke-opacity="1" fill="black" stroke-dasharray="none" font-weight="normal" stroke-width="1" height="1455" font-family="'Dialog'" font-style="normal" stroke-linejoin="miter" font-size="12px" stroke-dashoffset="0" image-rendering="auto">
  <!--Generated by ySVG 2.5-->
  <defs id="genericDefs"/>
  <g>
    <defs id="defs1">
      <clipPath clipPathUnits="userSpaceOnUse" id="clipPath1">
        <path d="M0 0 L535 0 L535 1455 L0 1455 L0 0 Z"/>
      </clipPath>
      <clipPath clipPathUnits="userSpaceOnUse" id="clipPath2">
        <path d="M-1105 -814 L-570 -814 L-570 641 L-1105 641 L-1105 -814 Z"/>
      </clipPath>
    </defs>
    <g fill="white" text-rendering="geometricPrecision" shape-rendering="geometricPrecision" transform="translate(1105,814)" stroke="white">
      <rect x="-1105" width="535" height="1455" y="-814" clip-path="url(#clipPath2)" stroke="none"/>
    </g>
    <g fill="lime" text-rendering="geometricPrecision" shape-rendering="geometricPrecision" transform="matrix(1,0,0,1,1105,814)" stroke="lime">
      <circle r="15" clip-path="url(#clipPath2)" cx="-868.5892" cy="-783.1189" stroke="none"/>
    </g>
    <g text-rendering="geometricPrecision" stroke-miterlimit="1.45" shape-rendering="geometricPrecision" transform="matrix(1,0,0,1,1105,814)" stroke-linecap="butt">
      <circle fill="none" r="15" clip-path="url(#clipPath2)" cx="-868.5892" cy="-783.1189"/>
    </g>
    <g fill="aqua" text-rendering="geometricPrecision" shape-rendering="geometricPrecision" transform="matrix(1,0,0,1,1105,814)" stroke="aqua">
      <ellipse rx="55.5" ry="56" clip-path="url(#clipPath2)" cx="-868.5892" cy="-637.1189" stroke="none"/>
    </g>
    <g text-rendering="geometricPrecision" stroke-miterlimit="1.45" shape-rendering="geometricPrecision" font-family="sans-serif" transform="matrix(1,0,0,1,1105,814)" stroke-linecap="butt">
      <text x="-885.1917" xml:space="preserve" y="-632.9646" clip-path="url(#clipPath2)" stroke="none">Initial</text>
      <ellipse rx="55.5" fill="none" ry="56" clip-path="url(#clipPath2)" cx="-868.5892" cy="-637.1189"/>
    </g>
    <g fill="aqua" text-rendering="geometricPrecision" shape-rendering="geometricPrecision" transform="matrix(1,0,0,1,1105,814)" stroke="aqua">
      <ellipse rx="55.5" ry="56" clip-path="url(#clipPath2)" cx="-868.5892" cy="-314.1189" stroke="none"/>
    </g>
    <g text-rendering="geometricPrecision" stroke-miterlimit="1.45" shape-rendering="geometricPrecision" font-family="sans-serif" transform="matrix(1,0,0,1,1105,814)" stroke-linecap="butt">
      <text x="-888.0482" xml:space="preserve" y="-309.9646" clip-path="url(#clipPath2)" stroke="none">Sitting</text>
      <ellipse rx="55.5" fill="none" ry="56" clip-path="url(#clipPath2)" cx="-868.5892" cy="-314.1189"/>
    </g>
    <g fill="aqua" text-rendering="geometricPrecision" shape-rendering="geometricPrecision" transform="matrix(1,0,0,1,1105,814)" stroke="aqua">
      <ellipse rx="55.5" ry="56" clip-path="url(#clipPath2)" cx="-868.5892" cy="-104.1189" stroke="none"/>
    </g>
    <g text-rendering="geometricPrecision" stroke-miterlimit="1.45" shape-rendering="geometricPrecision" font-family="sans-serif" transform="matrix(1,0,0,1,1105,814)" stroke-linecap="butt">
      <text x="-895.39" xml:space="preserve" y="-99.9646" clip-path="url(#clipPath2)" stroke="none">vibrating</text>
      <ellipse rx="55.5" fill="none" ry="56" clip-path="url(#clipPath2)" cx="-868.5892" cy="-104.1189"/>
    </g>
    <g fill="aqua" text-rendering="geometricPrecision" shape-rendering="geometricPrecision" transform="matrix(1,0,0,1,1105,814)" stroke="aqua">
      <ellipse rx="55.5" ry="56" clip-path="url(#clipPath2)" cx="-868.5892" cy="78.8811" stroke="none"/>
    </g>
    <g text-rendering="geometricPrecision" stroke-miterlimit="1.45" shape-rendering="geometricPrecision" font-family="sans-serif" transform="matrix(1,0,0,1,1105,814)" stroke-linecap="butt">
      <text x="-917.0755" xml:space="preserve" y="83.0354" clip-path="url(#clipPath2)" stroke="none">waiting to stand</text>
      <ellipse rx="55.5" fill="none" ry="56" clip-path="url(#clipPath2)" cx="-868.5892" cy="78.8811"/>
    </g>
    <g fill="aqua" text-rendering="geometricPrecision" shape-rendering="geometricPrecision" transform="matrix(1,0,0,1,1105,814)" stroke="aqua">
      <ellipse rx="55.5" ry="56" clip-path="url(#clipPath2)" cx="-868.5892" cy="238.1311" stroke="none"/>
    </g>
    <g text-rendering="geometricPrecision" stroke-miterlimit="1.45" shape-rendering="geometricPrecision" font-family="sans-serif" transform="matrix(1,0,0,1,1105,814)" stroke-linecap="butt">
      <text x="-894.6341" xml:space="preserve" y="242.2854" clip-path="url(#clipPath2)" stroke="none">standing</text>
      <ellipse rx="55.5" fill="none" ry="56" clip-path="url(#clipPath2)" cx="-868.5892" cy="238.1311"/>
    </g>
    <g fill="aqua" text-rendering="geometricPrecision" shape-rendering="geometricPrecision" transform="matrix(1,0,0,1,1105,814)" stroke="aqua">
      <ellipse rx="55.5" ry="56" clip-path="url(#clipPath2)" cx="-868.5892" cy="-475.6189" stroke="none"/>
    </g>
    <g text-rendering="geometricPrecision" stroke-miterlimit="1.45" shape-rendering="geometricPrecision" font-family="sans-serif" transform="matrix(1,0,0,1,1105,814)" stroke-linecap="butt">
      <text x="-892.0853" xml:space="preserve" y="-471.4646" clip-path="url(#clipPath2)" stroke="none">Buzzing</text>
      <ellipse rx="55.5" fill="none" ry="56" clip-path="url(#clipPath2)" cx="-868.5892" cy="-475.6189"/>
    </g>
    <g fill="aqua" text-rendering="geometricPrecision" shape-rendering="geometricPrecision" transform="matrix(1,0,0,1,1105,814)" stroke="aqua">
      <ellipse rx="55.5" ry="56" clip-path="url(#clipPath2)" cx="-868.5892" cy="403.9103" stroke="none"/>
    </g>
    <g text-rendering="geometricPrecision" stroke-miterlimit="1.45" shape-rendering="geometricPrecision" font-family="sans-serif" transform="matrix(1,0,0,1,1105,814)" stroke-linecap="butt">
      <text x="-892.2523" xml:space="preserve" y="408.0646" clip-path="url(#clipPath2)" stroke="none">flashing</text>
      <ellipse rx="55.5" fill="none" ry="56" clip-path="url(#clipPath2)" cx="-868.5892" cy="403.9103"/>
    </g>
    <g fill="aqua" text-rendering="geometricPrecision" shape-rendering="geometricPrecision" transform="matrix(1,0,0,1,1105,814)" stroke="aqua">
      <ellipse rx="55.5" ry="56" clip-path="url(#clipPath2)" cx="-868.5892" cy="569.6895" stroke="none"/>
    </g>
    <g text-rendering="geometricPrecision" stroke-miterlimit="1.45" shape-rendering="geometricPrecision" font-family="sans-serif" transform="matrix(1,0,0,1,1105,814)" stroke-linecap="butt">
      <text x="-907.4544" xml:space="preserve" y="573.8438" clip-path="url(#clipPath2)" stroke="none">waiting to sit</text>
      <ellipse rx="55.5" fill="none" ry="56" clip-path="url(#clipPath2)" cx="-868.5892" cy="569.6895"/>
      <path fill="none" d="M-868.5892 -768.1189 L-868.5892 -701.1189" clip-path="url(#clipPath2)"/>
      <path d="M-868.5892 -693.1189 L-863.5892 -705.1189 L-868.5892 -702.1189 L-873.5892 -705.1189 Z" clip-path="url(#clipPath2)" stroke="none"/>
      <path fill="none" d="M-813.0892 -314.1189 L-767.5892 -314.1189 L-767.5892 -565.1189 L-816.7466 -600.1618" clip-path="url(#clipPath2)"/>
      <path d="M-823.2608 -604.8056 L-816.3918 -593.7685 L-815.9323 -599.5813 L-810.5871 -601.9113 Z" clip-path="url(#clipPath2)" stroke="none"/>
      <text x="-793.8743" xml:space="preserve" y="-500.3818" clip-path="url(#clipPath2)" stroke="none">stand up</text>
      <path fill="none" d="M-868.5892 -258.1189 L-868.5892 -168.1189" clip-path="url(#clipPath2)"/>
      <path d="M-868.5892 -160.1189 L-863.5892 -172.1189 L-868.5892 -169.1189 L-873.5892 -172.1189 Z" clip-path="url(#clipPath2)" stroke="none"/>
      <text x="-953.5716" xml:space="preserve" y="-204.9646" clip-path="url(#clipPath2)" stroke="none">25 mins</text>
      <path fill="none" d="M-813.0892 -104.1189 L-713.8939 -104.1189 L-713.8939 -607.3652 L-805.9378 -626.6085" clip-path="url(#clipPath2)"/>
      <path d="M-813.7685 -628.2455 L-803.0456 -620.8957 L-804.9589 -626.4038 L-800.9993 -630.6841 Z" clip-path="url(#clipPath2)" stroke="none"/>
      <text x="-773.1341" xml:space="preserve" y="-129.9646" clip-path="url(#clipPath2)" stroke="none">stand up</text>
      <path fill="none" d="M-868.5892 -48.1189 L-868.5892 14.8811" clip-path="url(#clipPath2)"/>
      <path d="M-868.5892 22.8811 L-863.5892 10.8811 L-868.5892 13.8811 L-873.5892 10.8811 Z" clip-path="url(#clipPath2)" stroke="none"/>
      <text x="-925.4362" xml:space="preserve" y="-9.9508" clip-path="url(#clipPath2)" stroke="none">1 second</text>
      <path fill="none" d="M-868.5892 134.8811 L-868.5892 174.1311" clip-path="url(#clipPath2)"/>
      <path d="M-868.5892 182.1311 L-863.5892 170.1311 L-868.5892 173.1311 L-873.5892 170.1311 Z" clip-path="url(#clipPath2)" stroke="none"/>
      <text x="-926.0845" xml:space="preserve" y="167.119" clip-path="url(#clipPath2)" stroke="none">stand up</text>
      <path fill="none" d="M-868.5892 -581.1189 L-868.5892 -539.6189" clip-path="url(#clipPath2)"/>
      <path d="M-868.5892 -531.6189 L-863.5892 -543.6189 L-868.5892 -540.6189 L-873.5892 -543.6189 Z" clip-path="url(#clipPath2)" stroke="none"/>
      <text x="-955.8314" xml:space="preserve" y="-550.2146" clip-path="url(#clipPath2)" stroke="none">sit down</text>
      <path fill="none" d="M-924.0892 238.1311 L-1009.5732 238.1311 L-1009.5732 -406.9809 L-929.3185 -448.5945 L-926.679 -449.7691" clip-path="url(#clipPath2)"/>
      <path d="M-919.3699 -453.0215 L-932.3662 -452.711 L-927.5925 -449.3625 L-928.3007 -443.5747 Z" clip-path="url(#clipPath2)" stroke="none"/>
      <text x="-981.5735" xml:space="preserve" y="212.2854" clip-path="url(#clipPath2)" stroke="none">sit down</text>
      <path fill="none" d="M-868.5892 -419.6189 L-868.5892 -378.1189" clip-path="url(#clipPath2)"/>
      <path d="M-868.5892 -370.1189 L-863.5892 -382.1189 L-868.5892 -379.1189 L-873.5892 -382.1189 Z" clip-path="url(#clipPath2)" stroke="none"/>
      <text x="-962.5511" xml:space="preserve" y="-389.7146" clip-path="url(#clipPath2)" stroke="none">1/2 second</text>
      <path fill="none" d="M-813.0892 -475.6189 L-783.3392 -475.6189 L-783.3392 -547.2022 L-824.7196 -590.8479" clip-path="url(#clipPath2)"/>
      <path d="M-830.2238 -596.6534 L-825.5959 -584.505 L-824.0316 -590.1222 L-818.3391 -591.3853 Z" clip-path="url(#clipPath2)" stroke="none"/>
      <path fill="none" d="M-868.5892 294.1311 L-868.5892 339.9103" clip-path="url(#clipPath2)"/>
      <path d="M-868.5892 347.9103 L-863.5892 335.9103 L-868.5892 338.9103 L-873.5892 335.9103 Z" clip-path="url(#clipPath2)" stroke="none"/>
      <text x="-888.7542" xml:space="preserve" y="325.175" clip-path="url(#clipPath2)" stroke="none">5 mins</text>
      <path fill="none" d="M-924.0892 403.9103 L-1048.2145 403.9103 L-1048.2145 -438.1911 L-930.7741 -462.6617" clip-path="url(#clipPath2)"/>
      <path d="M-922.9423 -464.2935 L-935.71 -466.7406 L-931.7531 -462.4577 L-933.67 -456.9508 Z" clip-path="url(#clipPath2)" stroke="none"/>
      <text x="-981.5735" xml:space="preserve" y="378.0646" clip-path="url(#clipPath2)" stroke="none">sit down</text>
      <path fill="none" d="M-868.5892 459.9103 L-868.5892 505.6895" clip-path="url(#clipPath2)"/>
      <path d="M-868.5892 513.6895 L-863.5892 501.6895 L-868.5892 504.6895 L-873.5892 501.6895 Z" clip-path="url(#clipPath2)" stroke="none"/>
      <text x="-884.43" xml:space="preserve" y="490.9542" clip-path="url(#clipPath2)" stroke="none">1 sec</text>
      <path fill="none" d="M-924.0892 569.6895 L-1089.9064 569.6895 L-1089.9064 -475.6189 L-924.9382 -475.6189 L-924.0892 -475.6189" clip-path="url(#clipPath2)"/>
      <path d="M-924.0892 -475.6189 L-936.0892 -480.6189 L-933.0892 -475.6189 L-936.0892 -470.6189 Z" clip-path="url(#clipPath2)" stroke="none"/>
      <text x="-981.5735" xml:space="preserve" y="543.8438" clip-path="url(#clipPath2)" stroke="none">sit down</text>
      <path fill="none" d="M-813.0892 569.6895 L-585.4416 569.6895 L-585.4416 -650.9618 L-812.8301 -650.9618 L-814.6965 -650.4984" clip-path="url(#clipPath2)"/>
      <path d="M-814.6965 -650.4984 L-801.8452 -648.5374 L-805.9617 -652.6671 L-804.2549 -658.2427 Z" clip-path="url(#clipPath2)" stroke="none"/>
      <text x="-705.8479" xml:space="preserve" y="543.8438" clip-path="url(#clipPath2)" stroke="none">5 mins</text>
    </g>
  </g>
</svg>
